<svg xmlns="http://www.w3.org/2000/svg" viewBox="0 0 200 200" width="100%" height="100%">
  <rect width="200" height="200" fill="#ecfdf5" rx="16"/>
  <!-- Leaves -->
  <path d="M 100 85 C 80 50 65 60 75 80 C 85 95 100 85 100 85 Z" fill="#10b981"/>
  <path d="M 100 80 C 100 45 130 45 125 70 C 120 90 100 80 100 80 Z" fill="#059669"/>
  <path d="M 100 75 C 90 35 110 30 115 50 C 118 65 100 75 100 75 Z" fill="#34d399"/>
  <!-- Stem -->
  <line x1="100" y1="75" x2="100" y2="115" stroke="#047857" stroke-width="4" stroke-linecap="round"/>
  <!-- Clay Pot -->
  <polygon points="70,115 130,115 122,165 78,165" fill="#ea580c"/>
  <rect x="66" y="110" width="68" height="10" rx="3" fill="#c2410c"/>
</svg>
